# xmcd
#
# Track frame offsets:
#	150
#	16822
#	34395
#	46275
#	60487
#	74227
#	89167
#	106467
#	123392
#	140830
#	157390
#	173415
#	185957
#	200235
#	218565
#	231152
#	247267
#	258272
#
# Disc length: 3686 seconds
#
# Revision: 5
# Processed by: cddbd v1.5.2PL0 Copyright (c) Steve Scherf et al.
# Submitted via: audiograbber 1.83.01
#
DISCID=210e6412
DTITLE=Various Artist - Super Country '93
DYEAR=1993
DGENRE=Oldies
TTITLE0=Ricky Van Shelton  - Backroads
TTITLE1=Billy Dean  - I Wanna Take Care Of You
TTITLE2=Tanya Tucker  - It's A Little Too Late
TTITLE3=Shenandoah - Rock My Baby
TTITLE4=Anita Perras  - It Might As Well Be Me
TTITLE5=Prairie Oyster - Lonely You, Lonely Me
TTITLE6=One Horse Blue - Starting All Over Again
TTITLE7=McBride and The Ride - Just One Night
TTITLE8=Mark Chesnutt  - Old Country
TTITLE9=Joe Diffie  - Ships That Don't Come In
TTITLE10=Lorrie Morgan  - Five Minutes
TTITLE11=Jim Witter  - Distant Drums
TTITLE12=Ledoux, Chris - Look At You Girl
TTITLE13=Cassandra Vasik  - Sadly Mistaken
TTITLE14=Aaron Tippin  - There Ain't Nothin' Wrong With The Radio
TTITLE15=Joan Kennedy  - Talk To My Heart
TTITLE16=Collin Raye  - Every Second
TTITLE17=Marty Stuart  - High On A Mountain Top
EXTD=
EXTT0=
EXTT1=
EXTT2=
EXTT3=
EXTT4=
EXTT5=
EXTT6=
EXTT7=
EXTT8=
EXTT9=
EXTT10=
EXTT11=
EXTT12=
EXTT13=
EXTT14=
EXTT15=
EXTT16=
EXTT17=
PLAYORDER=
